<?xml version="1.0" encoding="UTF-8"?>
<svg id="Layer_1" xmlns="http://www.w3.org/2000/svg" version="1.1" viewBox="0 0 144 144">
  <!-- Generator: Adobe Illustrator 29.5.0, SVG Export Plug-In . SVG Version: 2.1.0 Build 137)  -->
  <defs>
    <style>
      .st0 {
        fill: #231f20;
      }
    </style>
  </defs>
  <path class="st0" d="M137.85,60.15c-.71-.71-1.48-1.37-2.28-1.98-.54-.4-1.1-.78-1.68-1.13-2.36-1.44-5.03-2.42-7.89-2.82V19.5c0-10.77-8.73-19.5-19.5-19.5H37.5c-10.77,0-19.5,8.73-19.5,19.5v34.72c-2.86.4-5.53,1.38-7.89,2.82-.58.35-1.14.73-1.68,1.13-.8.61-1.57,1.27-2.28,1.98-3.8,3.8-6.15,9.05-6.15,14.84v48.02c0,5.79,2.35,11.04,6.15,14.84,3.8,3.8,9.05,6.15,14.84,6.15h102.02c5.79,0,11.04-2.35,14.84-6.15,3.8-3.8,6.15-9.05,6.15-14.84v-48.02c0-5.79-2.35-11.04-6.15-14.84ZM28,19.5c0-5.24,4.26-9.5,9.5-9.5h69c5.24,0,9.5,4.26,9.5,9.5v48.36l-24.11,24.11c-5.66-5.07-12.77-7.59-19.89-7.59s-14.23,2.52-19.89,7.59l-24.11-24.11V19.5ZM10,123.01v-48.02c0-3.03,1.23-5.78,3.22-7.77l31.78,31.78-8.94,8.94-22.84,22.84c-2.08-2.08-3.22-4.84-3.22-7.77ZM24.14,134l26-26,1.97-1.97,5.83-5.83c.42-.42.87-.83,1.32-1.2.42-.35.85-.69,1.3-1,3.32-2.36,7.29-3.62,11.44-3.62s8.12,1.26,11.44,3.62c.45.31.88.65,1.3,1,.45.37.9.78,1.32,1.2l5.83,5.83,1.97,1.97,26,26H24.14ZM134,123.01c0,2.93-1.14,5.69-3.22,7.77l-22.84-22.84-8.94-8.94,31.78-31.78c1.99,1.99,3.22,4.74,3.22,7.77v48.02Z"/>
  <path class="st0" d="M66.89,60.84c-.79-.91-1.24-2.07-1.34-3.47h-6.56c0,2.94,1.04,5.31,3.12,7.1,2.08,1.79,4.8,2.85,8.17,3.17v4.36h3.5v-4.36c2.33-.22,4.35-.86,6.05-1.94,1.7-1.08,2.99-2.4,3.87-3.98.88-1.58,1.32-3.26,1.32-5.05,0-2.37-.52-4.22-1.56-5.57-1.04-1.34-2.31-2.33-3.82-2.96-1.51-.63-3.46-1.23-5.86-1.8v-11.62c1.25.32,2.26.92,3.01,1.8.75.88,1.18,1.87,1.29,2.98h6.56c-.25-2.98-1.34-5.31-3.25-7.02-1.92-1.7-4.45-2.7-7.61-2.98v-4.36h-3.5v4.36c-3.37.32-6.09,1.46-8.17,3.41-2.08,1.95-3.12,4.42-3.12,7.39,0,2.37.53,4.23,1.59,5.59,1.06,1.36,2.34,2.36,3.84,2.98,1.51.63,3.46,1.25,5.86,1.86v11.83c-1.47-.25-2.6-.83-3.39-1.75ZM73.77,51.67c1.61.5,2.86,1.16,3.74,1.96.88.81,1.32,1.93,1.32,3.36s-.45,2.66-1.34,3.68c-.9,1.02-2.13,1.66-3.71,1.91v-10.92ZM66.54,43.45c-.88-.82-1.32-1.97-1.32-3.44,0-1.58.46-2.83,1.37-3.76.91-.93,2.14-1.49,3.68-1.67v10.86c-1.61-.5-2.86-1.16-3.74-1.99Z"/>
</svg>