<?xml version="1.0" encoding="UTF-8"?>
<svg id="Layer_1" xmlns="http://www.w3.org/2000/svg" version="1.1" viewBox="0 0 144 144">
  <!-- Generator: Adobe Illustrator 29.5.0, SVG Export Plug-In . SVG Version: 2.1.0 Build 137)  -->
  <defs>
    <style>
      .st0 {
        fill: #f1f2f2;
      }

      .st1 {
        fill: #231f20;
      }
    </style>
  </defs>
  <rect class="st1" x="9" y="9" width="126" height="126" rx="19.27" ry="19.27"/>
  <g>
    <path class="st0" d="M113.16,64.59c-.44-.44-.92-.86-1.43-1.24-.34-.25-.69-.49-1.05-.71-1.48-.9-3.14-1.51-4.93-1.76v-21.7c0-6.73-5.46-12.19-12.19-12.19h-43.13c-6.73,0-12.19,5.46-12.19,12.19v21.7c-1.79.25-3.46.86-4.93,1.76-.36.22-.71.46-1.05.71-.5.38-.98.79-1.42,1.24-2.38,2.38-3.84,5.66-3.84,9.28v30.01c0,3.62,1.47,6.9,3.84,9.27,2.37,2.37,5.66,3.84,9.27,3.84h63.76c3.62,0,6.9-1.47,9.28-3.84,2.38-2.37,3.84-5.66,3.84-9.27v-30.01c0-3.62-1.47-6.9-3.84-9.28ZM44.5,39.19c0-3.27,2.66-5.94,5.94-5.94h43.13c3.27,0,5.94,2.66,5.94,5.94v30.23l-15.07,15.07c-3.54-3.17-7.98-4.74-12.43-4.74s-8.89,1.57-12.43,4.74l-15.07-15.07v-30.23ZM33.25,103.88v-30.01c0-1.89.77-3.61,2.01-4.86l19.86,19.86-5.59,5.59-14.28,14.27c-1.3-1.3-2.01-3.02-2.01-4.86ZM42.09,110.75l16.25-16.25,1.23-1.23,3.64-3.64c.26-.26.54-.52.83-.75.26-.22.53-.43.81-.63,2.08-1.47,4.56-2.26,7.15-2.26s5.08.79,7.15,2.26c.28.19.55.41.81.63.28.23.56.49.83.75l3.64,3.64,1.23,1.23,16.25,16.25h-59.83ZM110.75,103.88c0,1.83-.71,3.56-2.01,4.86l-14.27-14.27-5.59-5.59,19.86-19.86c1.24,1.24,2.01,2.96,2.01,4.86v30.01Z"/>
    <path class="st0" d="M68.81,65.03c-.49-.57-.77-1.29-.84-2.17h-4.1c0,1.84.65,3.32,1.95,4.44,1.3,1.12,3,1.78,5.11,1.98v2.72h2.18v-2.72c1.46-.13,2.72-.54,3.78-1.21,1.06-.67,1.87-1.5,2.42-2.49.55-.99.82-2.04.82-3.16,0-1.48-.32-2.64-.97-3.48-.65-.84-1.45-1.46-2.39-1.85-.94-.39-2.16-.77-3.66-1.13v-7.26c.78.2,1.41.58,1.88,1.13.47.55.74,1.17.81,1.87h4.1c-.16-1.86-.83-3.32-2.03-4.39-1.2-1.06-2.78-1.69-4.76-1.87v-2.72h-2.18v2.72c-2.11.2-3.81.91-5.11,2.13-1.3,1.22-1.95,2.76-1.95,4.62,0,1.48.33,2.64.99,3.5.66.85,1.46,1.47,2.4,1.87.94.39,2.16.78,3.66,1.16v7.39c-.92-.16-1.62-.52-2.12-1.09ZM73.11,59.3c1.01.31,1.79.72,2.34,1.23.55.5.82,1.2.82,2.1s-.28,1.66-.84,2.3c-.56.64-1.33,1.04-2.32,1.19v-6.82ZM68.59,54.15c-.55-.52-.82-1.23-.82-2.15,0-.99.29-1.77.86-2.35.57-.58,1.34-.93,2.3-1.04v6.79c-1.01-.31-1.79-.73-2.34-1.24Z"/>
  </g>
</svg>